<svg xmlns="http://www.w3.org/2000/svg" viewBox="0 0 295.29 188.94"><defs><style>.cls-1{fill:#554596;}.cls-2{fill:#fff;}</style></defs><g id="Capa_2" data-name="Capa 2"><g id="Capa_1-2" data-name="Capa 1"><path class="cls-1" d="M131.34,31.07V48.64a6.39,6.39,0,0,0-3.11-1q-4.48,0-4.48,6.85V75.29H107.33V51.36q0-9.48,5.18-15.13t13.83-5.64A33.66,33.66,0,0,1,131.34,31.07Z"/><path class="cls-1" d="M258.28,78.31h6.26l-16.93,23.92L228.9,78.37l8.7-.06v-46q0-12.66,6.63-20.63a27.26,27.26,0,0,1,9.71-7.31,29.53,29.53,0,0,1,32.89,5.59,27.41,27.41,0,0,1,8.46,20.36,27.79,27.79,0,0,1-8.41,20.24A27,27,0,0,1,267,59.06c-1.25,0-3.1-.13-5.53-.38V35.89a8.12,8.12,0,0,0,5.09,2,7.37,7.37,0,0,0,5.5-2.38,7.83,7.83,0,0,0,2.3-5.64A7.47,7.47,0,0,0,272,24.35a7.93,7.93,0,0,0-5.7-2.29q-8,0-8,11Z"/><path class="cls-1" d="M74.33,163h6.79l-18.38,26L42.42,163l9.44-.06V113q0-13.75,7.21-22.41a29.5,29.5,0,0,1,10.54-7.92,32,32,0,0,1,35.71,6.06,29.76,29.76,0,0,1,9.19,22.11,30.25,30.25,0,0,1-9.13,22,29.37,29.37,0,0,1-21.62,9.25q-2.06,0-6-.42V116.9a8.77,8.77,0,0,0,5.53,2.23,8,8,0,0,0,6-2.59,8.51,8.51,0,0,0,2.49-6.12,8.08,8.08,0,0,0-2.58-6A8.59,8.59,0,0,0,83,101.89q-8.66,0-8.65,12Z"/><path class="cls-1" d="M48,61.48,67.61,78.37,48,97.25c-.06,0,.06-4.16,0-4.18a16.26,16.26,0,0,0-4.59-1,7.16,7.16,0,0,0-5.34,2.29,7.68,7.68,0,0,0-2.23,5.55q0,2.77,2.43,7l2.1,3.65Q46,120.45,46,129.64a30.59,30.59,0,0,1-9.56,22.78,32.19,32.19,0,0,1-23.36,9.33,30.61,30.61,0,0,1-13.11-3V132a13.44,13.44,0,0,0,7,2.5,8.87,8.87,0,0,0,6-2.06,6.55,6.55,0,0,0,2.4-5.18q0-2-3.85-8.85A43.42,43.42,0,0,1,5.34,96.79a30.94,30.94,0,0,1,9.29-22.48,30.13,30.13,0,0,1,22.21-9.43A33.65,33.65,0,0,1,47,66.44l.63.2C47.72,66.68,47.86,61.43,48,61.48Z"/><path class="cls-1" d="M61.29,0,74.82,14.18,58.65,27S59,23.82,59,23.8a12.54,12.54,0,0,0-3.39-1.1A5.42,5.42,0,0,0,51.38,24a5.77,5.77,0,0,0-2.09,4,11.42,11.42,0,0,0,1.31,5.47l1.31,2.91a28.92,28.92,0,0,1,2.87,14.78c-.31,3.2-2.43,8.46-3.77,11.09-1.83-1.82-1.17-.68-5.2-4.71,0,6-2.18,6.89-9.11,6.21C33.37,63.47,22.43,65,18,69.71l2-20.12A10.17,10.17,0,0,0,25,52a6.65,6.65,0,0,0,4.65-1.11,4.94,4.94,0,0,0,2.19-3.72c.1-1-.65-3.33-2.25-6.95a32.88,32.88,0,0,1-3-16.76A23.39,23.39,0,0,1,35.21,7.21,22.79,22.79,0,0,1,52.63,1.74a25.25,25.25,0,0,1,7.51,1.92l.46.2C60.7,3.9,61.19,0,61.29,0Z"/><path class="cls-1" d="M244.52,155.94H219.24V117.88q0-5.8-4.8-5.81c-3.16,0-4.73,1.94-4.73,5.81v38.06H184.43V118.36a30.7,30.7,0,0,1,8.72-22.21,28.54,28.54,0,0,1,21.36-9q14.46,0,23.18,10.48,6.83,8.19,6.83,22.78Z"/><path class="cls-1" d="M276,78.37v18h11.36V123H276q0,8.06,2.53,11.09t9.3,3v26.57q-2,.06-2.91.06a34.36,34.36,0,0,1-16.19-4A32.74,32.74,0,0,1,256.48,149q-5.81-8.72-5.81-23.12V107.41l20.68-29Z"/><path class="cls-1" d="M87.46,53.73l17.43-.66a24.8,24.8,0,0,1-7.56,16.68,23.09,23.09,0,0,1-16.58,6.53A23.61,23.61,0,0,1,63.3,69.09a24.05,24.05,0,0,1-7.12-17.62,22.88,22.88,0,0,1,7.19-17A24.55,24.55,0,0,1,96.11,33a23.55,23.55,0,0,1,8.36,14.14l-17.8.66a7.05,7.05,0,0,0-5.83-3,6.61,6.61,0,0,0-4.93,2,6.83,6.83,0,0,0-1.93,5,7,7,0,0,0,2,5.12,6.86,6.86,0,0,0,5.09,2.07Q85.59,58.94,87.46,53.73Z"/><path class="cls-1" d="M133.88,31h16.43V55.69c0,2.49,1,3.73,3.11,3.73s3.08-1.24,3.08-3.73V31h16.42V55.38a19.93,19.93,0,0,1-5.66,14.38,20.28,20.28,0,0,1-3.08,2.62,16.82,16.82,0,0,0-3.27,1,25.07,25.07,0,0,0-3.5,1.85,20.26,20.26,0,0,1-4,.38,18.66,18.66,0,0,1-15.06-6.8q-4.44-5.31-4.44-14.76Z"/><path class="cls-1" d="M235.43,74.13H219V50.5a8.68,8.68,0,0,0-.57-3.77,2.14,2.14,0,0,0-2.06-1.06q-2.77,0-2.77,4.88V74.13H197.19V50.5a8.47,8.47,0,0,0-.59-3.77,2.21,2.21,0,0,0-2.09-1.06c-1.82,0-2.72,1.63-2.72,4.88V74.13H176.66l-.67-.34-.63-.28V47.17a17.42,17.42,0,0,1,5-12.54,16.06,16.06,0,0,1,12-5.16q7.29,0,13.08,6.15,6.47-6.15,12.91-6.15a16.28,16.28,0,0,1,13.18,6q3.9,4.66,3.9,13.57Z"/><path class="cls-1" d="M152.76,101.22v13.67a10,10,0,0,0-4.8-1.49q-6.9,0-6.9,10.55v32H115.78V119.08q0-14.6,8-23.29c5.32-5.79,12.42-8.71,21.29-8.68,1.74,0,4.77-.61,4.55.79A18.88,18.88,0,0,0,152.76,101.22Z"/><path class="cls-1" d="M180.8,104.06l.36,52.57H155.88v-52a17.82,17.82,0,0,0,12.12,4.5A18.19,18.19,0,0,0,180.8,104.06Z"/><circle class="cls-2" cx="169.15" cy="90.14" r="20.51"/><circle class="cls-1" cx="169.15" cy="90.14" r="13.03"/></g></g></svg>